<svg height="512" viewBox="0 0 128 128" width="512" xmlns="http://www.w3.org/2000/svg"><g><path d="m77.348 71.152a1.75 1.75 0 1 0 2.336 2.606 23.508 23.508 0 1 0 -31.373 0 1.75 1.75 0 1 0 2.337-2.605 20.008 20.008 0 1 1 26.7 0z"/><path d="m44.4 83.782a1.75 1.75 0 1 0 2.033-2.849 30.3 30.3 0 1 1 35.139 0 1.75 1.75 0 0 0 2.032 2.85 33.8 33.8 0 1 0 -39.2 0z"/><path d="m96.048 102.051h-11.334l-3.094-7.53v-.01l-10.97-26.685a13.368 13.368 0 1 0 -13.3 0l-14.064 34.225h-11.334a1.75 1.75 0 0 0 0 3.5h64.1a1.75 1.75 0 0 0 0-3.5zm-38.3-25.984 12.524 5.438-18.827 9.9zm15.682 7.733 3.97 9.646h-22.317zm-19.3-27.552a9.868 9.868 0 1 1 9.87 9.867 9.879 9.879 0 0 1 -9.868-9.868zm9.87 13.367a13.307 13.307 0 0 0 3.413-.459l3.648 8.877-11.984-5.2 1.51-3.673a13.263 13.263 0 0 0 3.413.455zm-14.833 27.331h29.666l2.1 5.105h-33.863z"/></g></svg>