<?xml version="1.0" encoding="iso-8859-1"?>
<!-- Generator: Adobe Illustrator 19.0.0, SVG Export Plug-In . SVG Version: 6.00 Build 0)  -->
<svg version="1.1" id="Capa_1" xmlns="http://www.w3.org/2000/svg" xmlns:xlink="http://www.w3.org/1999/xlink" x="0px" y="0px"
	 viewBox="0 0 496 496" style="enable-background:new 0 0 496 496;" xml:space="preserve">
<g>
	<g>
		<path d="M248,0C111.033,0,0,111.033,0,248s111.033,248,248,248s248-111.033,248-248C495.85,111.096,384.904,0.15,248,0z M248,480
			C119.87,480,16,376.13,16,248S119.87,16,248,16s232,103.87,232,232C479.85,376.068,376.068,479.85,248,480z"/>
	</g>
</g>
<g>
	<g>
		<path d="M364.626,127.672c-2.203-1.068-4.774-1.068-6.978,0v-0.008L205.312,201.6c-0.232,0.112-0.368,0.352-0.584,0.488
			c-1.045,0.692-1.94,1.587-2.632,2.632c-0.136,0.216-0.376,0.352-0.488,0.584l-73.944,152.344
			c-1.927,3.976-0.266,8.761,3.71,10.688c2.203,1.068,4.774,1.068,6.978,0L290.688,294.4c0.232-0.112,0.368-0.352,0.584-0.488
			c1.045-0.692,1.94-1.587,2.632-2.632c0.136-0.216,0.376-0.352,0.488-0.584l73.944-152.336
			C370.263,134.384,368.602,129.599,364.626,127.672z M152.144,343.856L211.096,222.4l62.504,62.504L152.144,343.856z
			 M284.944,273.592L222.4,211.096l121.448-58.952L284.944,273.592z"/>
	</g>
</g>
<g>
</g>
<g>
</g>
<g>
</g>
<g>
</g>
<g>
</g>
<g>
</g>
<g>
</g>
<g>
</g>
<g>
</g>
<g>
</g>
<g>
</g>
<g>
</g>
<g>
</g>
<g>
</g>
<g>
</g>
</svg>
